<?xml version="1.0" standalone="no"?>
<!DOCTYPE svg PUBLIC "-//W3C//DTD SVG 20010904//EN"
 "http://www.w3.org/TR/2001/REC-SVG-20010904/DTD/svg10.dtd">
<svg version="1.0" xmlns="http://www.w3.org/2000/svg"
 width="700.000000pt" height="700.000000pt" viewBox="0 0 700.000000 700.000000"
 preserveAspectRatio="xMidYMid meet">
<metadata>
Created by potrace 1.14, written by Peter Selinger 2001-2017
</metadata>
<g transform="translate(0.000000,700.000000) scale(0.100000,-0.100000)"
fill="#000000" stroke="none">
<path d="M2519 6182 c-36 -37 -277 -275 -535 -529 l-468 -462 -116 114 c-63
63 -200 197 -305 299 l-190 185 -158 -157 c-86 -86 -157 -159 -157 -163 0 -4
898 -906 925 -928 6 -5 1395 1384 1395 1395 0 12 -303 314 -315 314 -5 -1 -40
-31 -76 -68z"/>
<path d="M3502 5397 l3 -292 1455 0 1455 0 1 292 1 292 -1459 -1 -1458 0 2
-291z"/>
<path d="M2315 4084 c-154 -152 -396 -391 -538 -531 l-258 -256 -31 29 c-34
32 -80 76 -359 349 -102 99 -194 188 -206 198 -20 18 -23 16 -177 -138 -86
-86 -156 -159 -156 -163 0 -4 208 -215 463 -470 l463 -463 694 695 c382 382
695 699 695 705 0 9 -104 118 -247 258 l-63 62 -280 -275z"/>
<path d="M3500 3500 l0 -290 1458 0 1458 0 0 290 0 290 -1458 0 -1458 0 0
-290z"/>
<path d="M2464 2336 c-278 -277 -948 -936 -950 -933 -136 136 -599 583 -606
586 -10 3 -318 -297 -318 -311 0 -5 209 -217 464 -472 l463 -463 697 696 c383
383 696 700 696 704 0 11 -309 317 -318 316 -4 -1 -62 -56 -128 -123z"/>
<path d="M3500 1603 l0 -292 1458 2 1457 2 0 290 0 290 -1457 0 -1458 0 0
-292z"/>
</g>
</svg>
